# xmcd
#
# Track frame offsets: 
#        150
#        29205
#        58385
#        93482
#        127220
#        164377
#        195197
#
# Disc length: 3270 seconds
#
# Revision: 4
# Processed by: cddbd v1.5.2PL0 Copyright (c) Steve Scherf et al.
# Submitted via: ExactAudioCopy v0.99pb5
#
DISCID=660cc407
DTITLE=Jack DeJohnette - Parallel Realities
DYEAR=1990
DGENRE=Jazz
TTITLE0=Jack In
TTITLE1=Exotic Isles
TTITLE2=Dancing
TTITLE3=Nine Over Reggae
TTITLE4=John McKee
TTITLE5=Indigo Dreamscapes
TTITLE6=Parallel Realities
EXTD=YEAR: 1990
EXTT0=
EXTT1=
EXTT2=
EXTT3=
EXTT4=
EXTT5=
EXTT6=
PLAYORDER=
